<?xml version="1.0" encoding="UTF-8"?>
<svg version="1.1" xmlns="http://www.w3.org/2000/svg" width="512" height="512">
<path d="M0 0 C8.35452821 5.55372649 15.33265749 13.06882162 21.5 20.9375 C22.50804687 20.61523438 23.51609375 20.29296875 24.5546875 19.9609375 C36.14375581 16.6722265 48.85388316 18.70157272 59.28515625 24.48046875 C70.50318746 31.87455569 77.37209356 41.87470131 80.5 54.9375 C81.66459179 68.73655848 79.92586192 80.3249743 71.4296875 91.68359375 C68.43590131 95.1803845 65.107051 98.09260831 61.5 100.9375 C60.51 101.741875 59.52 102.54625 58.5 103.375 C57.84 103.890625 57.18 104.40625 56.5 104.9375 C62.70665464 103.76652929 68.82640998 102.38278826 74.94824219 100.83081055 C84.98854578 98.30306371 95.01415144 96.19320362 105.25 94.625 C106.79977539 94.38644287 106.79977539 94.38644287 108.38085938 94.14306641 C133.80619788 90.43214272 167.31075288 87.99288153 189.5 103.9375 C200.28772691 112.24718857 206.44393274 121.37765146 208.5 134.9375 C211.5600484 164.48018945 192.6145155 192.79140588 174.9375 214.6875 C170.59653347 219.89818566 166.06875902 224.92685756 161.5 229.9375 C159.93703648 231.68708603 158.37453199 233.43708224 156.8125 235.1875 C153.48144291 238.89257052 150.06809887 242.46089085 146.5 245.9375 C147.90837573 249.14859666 149.58035636 251.23349049 152.09765625 253.66015625 C152.81236084 254.35786133 153.52706543 255.05556641 154.26342773 255.77441406 C155.02212158 256.50885742 155.78081543 257.24330078 156.5625 258 C163.02426553 264.36148399 168.9859696 270.73010135 174.5 277.9375 C175.70849609 279.45537109 175.70849609 279.45537109 176.94140625 281.00390625 C183.0003043 288.64979676 188.49024837 296.56591141 193.5 304.9375 C193.85336426 305.52756836 194.20672852 306.11763672 194.57080078 306.72558594 C204.79878171 324.10418574 211.18145025 343.59896997 208.0390625 363.91796875 C204.94923066 375.35034655 197.8368542 384.64574411 188 391.0625 C177.65214767 396.93518099 166.24337686 399.61067664 154.5 400.9375 C154.314375 402.175 154.12875 403.4125 153.9375 404.6875 C151.42956728 415.68781181 144.56951122 424.46685457 135.5 430.9375 C124.21636736 437.51424588 111.92908322 439.56409445 99.20703125 436.75 C86.16481669 432.83545364 76.45782307 425.12792727 69.9375 413.234375 C67.50477001 407.65496165 66.44210793 401.92350886 65.5 395.9375 C65.31179688 394.81085938 65.12359375 393.68421875 64.9296875 392.5234375 C64.71699219 391.24339844 64.71699219 391.24339844 64.5 389.9375 C62.52 389.2775 60.54 388.6175 58.5 387.9375 C56.82730788 392.8577882 55.22728832 397.78652863 53.73828125 402.765625 C47.82250947 422.54533386 41.35176774 441.74256424 31.5 459.9375 C30.93667969 460.99195313 30.37335938 462.04640625 29.79296875 463.1328125 C20.05251443 480.60632071 6.32731641 497.77737074 -13.28515625 504.27734375 C-24.18659711 506.51591423 -35.50535378 506.02334252 -45.5 500.9375 C-46.68529297 500.38835937 -46.68529297 500.38835937 -47.89453125 499.828125 C-78.08559548 484.02537086 -92.29354874 443.78885723 -101.85083008 413.54956055 C-106.82854951 397.57634856 -106.82854951 397.57634856 -107.5 390.9375 C-108.08563721 391.09831055 -108.67127441 391.25912109 -109.2746582 391.42480469 C-145.58311452 401.26426651 -191.14594577 410.37441314 -226.1953125 391.43359375 C-237.26064606 384.25050434 -244.25842976 374.98972913 -247.03125 362.06640625 C-249.23480369 347.35768539 -245.46736196 333.70490929 -240.5 319.9375 C-241.15355469 319.38835937 -241.15355469 319.38835937 -241.8203125 318.828125 C-249.90727794 311.47633824 -254.86360906 301.06359859 -255.8359375 290.17578125 C-255.9629015 277.41589876 -253.61754301 267.14861858 -245.5 256.9375 C-245.02175781 256.32261719 -244.54351562 255.70773437 -244.05078125 255.07421875 C-238.15219072 248.37330104 -227.48890644 242.54878691 -218.47631836 241.76049805 C-208.37319985 241.47071599 -199.79703132 241.46840073 -190.5 245.9375 C-188.83689084 246.61299252 -187.17110868 247.28204748 -185.5 247.9375 C-185.17878198 244.90524092 -185.17878198 244.90524092 -187.10131836 243.02734375 C-188.20938843 241.96193359 -188.20938843 241.96193359 -189.33984375 240.875 C-190.15138916 240.08367676 -190.96293457 239.29235352 -191.79907227 238.47705078 C-192.66975342 237.63899902 -193.54043457 236.80094727 -194.4375 235.9375 C-201.28464243 229.21938269 -207.69438406 222.58194648 -213.5 214.9375 C-214.29148438 213.95136719 -215.08296875 212.96523437 -215.8984375 211.94921875 C-233.3548887 190.09572761 -249.25930371 163.61716123 -247.27734375 134.6875 C-245.7208156 122.83975177 -240.23946237 113.9811453 -231.5 105.9375 C-207.86576151 88.39999182 -174.75065381 90.06527346 -147.09375 93.87890625 C-133.49979713 95.9481804 -119.51611312 98.43159776 -106.5 102.9375 C-106.41218262 102.39617432 -106.32436523 101.85484863 -106.23388672 101.29711914 C-104.7600821 93.10065285 -102.24958136 85.26059447 -99.625 77.375 C-99.38556671 76.65395081 -99.14613342 75.93290161 -98.89944458 75.19000244 C-90.85320239 51.16029994 -80.33037513 28.30412701 -62.5 9.9375 C-61.91734375 9.29296875 -61.3346875 8.6484375 -60.734375 7.984375 C-56.27334396 3.18980893 -51.31301611 -0.07859972 -45.5 -3.0625 C-44.69046875 -3.47886719 -43.8809375 -3.89523438 -43.046875 -4.32421875 C-28.61111323 -10.63432934 -13.1349194 -7.68512865 0 0 Z M-56.5 28.4375 C-73.86936435 51.21299181 -84.73310631 80.08340346 -90.5 107.9375 C-89.20473389 108.39636597 -89.20473389 108.39636597 -87.88330078 108.86450195 C-46.69205748 123.51021675 -46.69205748 123.51021675 -28.51074219 132.39892578 C-27.54555664 132.86669434 -26.58037109 133.33446289 -25.5859375 133.81640625 C-24.72790527 134.24638916 -23.86987305 134.67637207 -22.98583984 135.11938477 C-18.2014877 136.69396383 -14.42496849 134.59834919 -10.0546875 132.56640625 C-8.98976074 132.07922119 -7.92483398 131.59203613 -6.82763672 131.09008789 C-5.6882666 130.56535889 -4.54889648 130.04062988 -3.375 129.5 C4.08076418 126.09779076 11.52246126 122.83390442 19.25 120.09375 C20.4860498 119.65474365 21.72209961 119.2157373 22.99560547 118.76342773 C25.38411118 117.93196554 27.7789494 117.11844071 30.18017578 116.32446289 C31.2576709 115.9505542 32.33516602 115.57664551 33.4453125 115.19140625 C34.39937988 114.87502197 35.35344727 114.5586377 36.33642578 114.23266602 C38.77120473 113.10242608 38.77120473 113.10242608 39.31591797 110.29663086 C39.37666504 109.51811768 39.43741211 108.73960449 39.5 107.9375 C38.55640625 107.85113281 37.6128125 107.76476562 36.640625 107.67578125 C23.73164942 106.263052 11.30987177 103.00586963 2.59765625 92.68359375 C-5.53953383 81.69064563 -8.562651 70.52745924 -7.5 56.9375 C-5.97831878 49.32039856 -3.41304057 42.97271899 1.23046875 36.7421875 C2.68694998 34.85530639 2.68694998 34.85530639 3.5 31.9375 C4.49 31.6075 5.48 31.2775 6.5 30.9375 C-0.18298075 21.08337936 -8.07369453 13.74626849 -19.5 9.9375 C-36.15696605 8.30217374 -46.06618942 16.13901242 -56.5 28.4375 Z M-223.5 121.9375 C-228.9566133 128.62983488 -230.78140921 135.4752203 -230.4375 144 C-228.40295392 163.8653994 -217.37937419 181.41331782 -205.5 196.9375 C-204.8090625 197.84113281 -204.118125 198.74476563 -203.40625 199.67578125 C-199.36267959 204.8345427 -195.06637644 209.73018144 -190.6484375 214.5703125 C-188.74848159 216.66371846 -186.89998279 218.78945674 -185.0625 220.9375 C-180.79447995 225.84974949 -176.14080999 230.38072882 -171.5 234.9375 C-166.59387003 231.37815081 -161.9144957 227.63030205 -157.3125 223.6875 C-153.01424098 220.01625185 -148.66566187 216.45029593 -144.1875 213 C-143.18799316 212.2152832 -142.18848633 211.43056641 -141.15869141 210.62207031 C-138.68812001 208.73964995 -136.18313661 207.14751218 -133.4765625 205.62670898 C-127.15938689 201.87340526 -121.75973264 198.29147675 -119.72387695 190.91821289 C-118.57391768 184.97016915 -118.19484684 178.97423759 -117.8125 172.9375 C-117.62196188 170.78701882 -117.42318076 168.63725263 -117.21630859 166.48828125 C-116.90945819 163.28816606 -116.60770175 160.08863133 -116.33398438 156.88549805 C-115.58303039 148.12551652 -114.28574167 139.56617385 -112.625 130.9375 C-112.40884033 129.78894531 -112.19268066 128.64039063 -111.9699707 127.45703125 C-111.49195574 124.94789988 -111.00365634 122.44158469 -110.5 119.9375 C-118.04603437 117.21344664 -125.64485474 115.47457468 -133.5 113.875 C-134.14439026 113.74365662 -134.78878052 113.61231323 -135.45269775 113.47698975 C-161.77905848 108.13927544 -201.88833512 101.04782838 -223.5 121.9375 Z M60.5 122.9375 C61.13711229 130.80262201 62.33610089 138.55856338 63.59823608 146.34286499 C65.28766365 156.77348837 66.96573203 167.18767976 67.86694336 177.72265625 C68.21072881 181.46090578 68.66115666 184.63671909 70.5 187.9375 C72.6792785 189.78597174 72.6792785 189.78597174 75.4375 191.375 C89.59776197 200.39686751 102.81037911 210.77540965 115.73242188 221.47412109 C118.39693608 223.68007388 121.07353843 225.87105858 123.75 228.0625 C124.58015625 228.74570313 125.4103125 229.42890625 126.265625 230.1328125 C128.31064458 231.78455908 130.39294828 233.36633624 132.5 234.9375 C147.77840929 220.14036738 147.77840929 220.14036738 161.5 203.9375 C162.31339844 202.91785156 163.12679687 201.89820313 163.96484375 200.84765625 C177.47098585 183.86312236 192.8690663 161.26336402 191.88671875 138.5 C190.65987532 130.37061322 187.03954755 123.43893397 180.484375 118.3828125 C147.75297451 96.59800621 94.30797843 112.16090885 60.5 122.9375 Z M-94.5 124.9375 C-97.4846455 138.66318454 -99.99131998 152.38779649 -101.8125 166.3125 C-101.98362305 167.61912598 -102.15474609 168.92575195 -102.33105469 170.27197266 C-103.18518297 176.5860271 -103.18518297 176.5860271 -103.5 182.9375 C-98.50752741 181.25353107 -94.383657 178.41217022 -90 175.5625 C-73.93990552 165.27417273 -57.19226597 156.14983726 -40.5 146.9375 C-40.5 146.2775 -40.5 145.6175 -40.5 144.9375 C-53.07089884 139.2117391 -65.74514384 133.95950113 -78.75 129.3125 C-79.96913086 128.87502441 -81.18826172 128.43754883 -82.44433594 127.98681641 C-88.33669821 125.7421719 -88.33669821 125.7421719 -94.5 124.9375 Z M37.28125 130.30859375 C36.01897583 130.79392578 36.01897583 130.79392578 34.73120117 131.2890625 C33.82990479 131.64742187 32.9286084 132.00578125 32 132.375 C31.07614502 132.73464844 30.15229004 133.09429687 29.20043945 133.46484375 C19.89435895 137.11472195 10.68360711 140.99117283 1.5 144.9375 C1.5 145.5975 1.5 146.2575 1.5 146.9375 C2.02094238 147.20264404 2.54188477 147.46778809 3.07861328 147.7409668 C14.68247052 153.67179908 26.04645606 159.88737566 37.21337891 166.6081543 C41.57402357 169.23029692 45.90156251 171.75570429 50.5 173.9375 C50.63592736 168.2058965 50.17924796 162.91972376 49.1875 157.28125 C49.05432373 156.49351196 48.92114746 155.70577393 48.78393555 154.89416504 C48.362101 152.40751586 47.93121577 149.92253765 47.5 147.4375 C47.2103348 145.73968605 46.92126661 144.04177013 46.6328125 142.34375 C45.92876723 138.20712314 45.21660731 134.07196839 44.5 129.9375 C41.07505287 128.79585096 40.51126669 129.050414 37.28125 130.30859375 Z M-23.9921875 156.69140625 C-24.84973633 157.12670654 -25.70728516 157.56200684 -26.59082031 158.01049805 C-27.96898926 158.74780151 -27.96898926 158.74780151 -29.375 159.5 C-30.3453418 160.00378174 -31.31568359 160.50756348 -32.31542969 161.02661133 C-35.39136648 162.6380401 -38.44800942 164.28120706 -41.5 165.9375 C-42.44327148 166.44829102 -43.38654297 166.95908203 -44.35839844 167.48535156 C-58.02074188 174.94058203 -71.36180606 182.93208735 -84.52734375 191.23046875 C-88.74685925 193.88744805 -92.99565743 196.36874322 -97.43969727 198.63012695 C-103.28408673 202.13474676 -103.28408673 202.13474676 -106.29418945 207.95019531 C-106.31698975 209.12678711 -106.33979004 210.30337891 -106.36328125 211.515625 C-106.38305023 212.19280579 -106.40281921 212.86998657 -106.42318726 213.56768799 C-106.48236098 216.02481594 -106.49181286 218.47968111 -106.5 220.9375 C-106.52457765 223.0253974 -106.54976327 225.1132877 -106.57543945 227.20117188 C-106.63332284 233.12898459 -106.64060953 239.05583424 -106.63037109 244.98388672 C-106.62499097 248.69372607 -106.6303554 252.40344547 -106.63671875 256.11328125 C-106.6360582 258.50781276 -106.6347775 260.9023442 -106.6328125 263.296875 C-106.63483673 264.38780457 -106.63686096 265.47873413 -106.63894653 266.60272217 C-106.62958649 269.71641764 -106.57959096 272.82483703 -106.5 275.9375 C-106.47544739 277.02931076 -106.45089478 278.12112152 -106.42559814 279.24601746 C-106.24549776 285.29584501 -106.24549776 285.29584501 -103.58007812 290.53051758 C-102.3184082 291.29851685 -102.3184082 291.29851685 -101.03125 292.08203125 C-100.08056641 292.68813232 -99.12988281 293.2942334 -98.15039062 293.91870117 C-97.11076172 294.52302979 -96.07113281 295.1273584 -95 295.75 C-93.92427734 296.41813721 -92.84855469 297.08627441 -91.74023438 297.7746582 C-89.475256 299.1725232 -87.20785509 300.55203012 -84.91796875 301.90722656 C-81.65100888 303.84780073 -78.41673021 305.83336908 -75.1875 307.8359375 C-62.16546868 315.85044224 -48.86532613 323.37091939 -35.31787109 330.46142578 C-33.30629024 331.51514419 -31.3050398 332.58868103 -29.31103516 333.67529297 C-28.25577637 334.23490723 -27.20051758 334.79452148 -26.11328125 335.37109375 C-24.68109253 336.1434436 -24.68109253 336.1434436 -23.2199707 336.93139648 C-19.20428853 338.41677717 -16.89079133 337.53915326 -13.06591797 335.88452148 C-11.79192139 335.22818726 -11.79192139 335.22818726 -10.4921875 334.55859375 C-9.51894531 334.05763184 -8.54570312 333.55666992 -7.54296875 333.04052734 C-5.97482422 332.21609131 -5.97482422 332.21609131 -4.375 331.375 C-3.28058594 330.80217285 -2.18617188 330.2293457 -1.05859375 329.63916016 C10.68434577 323.41946759 22.10871349 316.70343344 33.45214844 309.78417969 C36.26682966 308.07877687 39.10156771 306.41410599 41.9453125 304.7578125 C43.50630172 303.81952497 45.06628553 302.87956159 46.625 301.9375 C47.67300781 301.34364502 47.67300781 301.34364502 48.7421875 300.73779297 C52.22873239 298.57040827 53.39862149 297.34788373 54.39453125 293.31640625 C54.4564607 291.8576615 54.48939528 290.39752022 54.5 288.9375 C54.60343363 287.21732434 54.70904764 285.49727891 54.81640625 283.77734375 C55.47929779 268.96811861 55.81516103 254.16110543 55.5406189 239.33828735 C55.47276905 234.78563653 55.58551808 230.26231441 55.76931763 225.71331787 C56.96337264 208.64135297 56.96337264 208.64135297 51.45410156 193.12451172 C46.15914628 188.42704563 40.04896251 185.73861705 33.51074219 183.17480469 C29.11697391 181.36912697 25.21874807 178.92661953 21.1875 176.4375 C13.42519783 171.91929663 5.52635278 167.64355479 -2.375 163.375 C-4.061698 162.46234375 -4.061698 162.46234375 -5.7824707 161.53125 C-6.84167725 160.96277344 -7.90088379 160.39429688 -8.9921875 159.80859375 C-9.93433105 159.30255615 -10.87647461 158.79651855 -11.84716797 158.27514648 C-17.80178008 154.99452084 -17.80178008 154.99452084 -23.9921875 156.69140625 Z M71.5 208.9375 C71.5 233.6875 71.5 258.4375 71.5 283.9375 C75.80646474 281.47666301 79.46881866 279.36812355 83.3203125 276.43359375 C84.17931152 275.78052246 85.03831055 275.12745117 85.92333984 274.45458984 C86.8148877 273.7683252 87.70643555 273.08206055 88.625 272.375 C89.55135254 271.66553223 90.47770508 270.95606445 91.43212891 270.22509766 C98.64480498 264.66886121 105.63790311 258.9201031 112.5 252.9375 C113.93653817 251.70720938 115.37385861 250.47783057 116.8125 249.25 C118.1428125 248.1053125 118.1428125 248.1053125 119.5 246.9375 C110.49111719 237.7461168 100.46762054 229.77760952 90.1875 222.0625 C89.36435303 221.44455566 88.54120605 220.82661133 87.69311523 220.18994141 C82.38959705 216.24811576 77.01911317 212.61690878 71.5 208.9375 Z M-130.375 223.375 C-131.39122437 224.19327271 -131.39122437 224.19327271 -132.42797852 225.02807617 C-134.45434485 226.66165611 -136.47758918 228.29902687 -138.5 229.9375 C-139.04672363 230.37932617 -139.59344727 230.82115234 -140.15673828 231.27636719 C-146.04875073 236.04126196 -151.84248572 240.89599014 -157.5 245.9375 C-156.27766554 249.60450337 -154.94983091 250.43316262 -151.9375 252.8125 C-150.95523438 253.59625 -149.97296875 254.38 -148.9609375 255.1875 C-148.41405273 255.620625 -147.86716797 256.05375 -147.30371094 256.5 C-143.86530702 259.24029808 -140.46883915 262.03252911 -137.0625 264.8125 C-130.85847026 270.84477498 -130.85847026 270.84477498 -123.5 273.9375 C-123.17 255.4575 -122.84 236.9775 -122.5 217.9375 C-125.06331248 217.9375 -128.34250484 221.73070377 -130.375 223.375 Z M-171.5 258.9375 C-172.69397286 260.71973609 -172.69397286 260.71973609 -173.5 262.9375 C-172.94447775 264.86734936 -172.94447775 264.86734936 -171.75 266.6875 C-166.17348493 276.97390956 -165.98513321 288.57730735 -169.125 299.75 C-172.84103697 310.41903995 -179.29381754 318.78657034 -189.171875 324.4765625 C-201.1360847 330.25588413 -211.57616862 330.04697044 -224.5 328.9375 C-229.56139942 339.33056774 -232.63528498 350.07416137 -229.4375 361.5625 C-226.40785857 369.57547686 -220.10251249 375.28042934 -212.5 378.9375 C-189.17964778 389.07831983 -161.65823965 384.95749277 -137.5 380.5625 C-136.40365234 380.36567627 -135.30730469 380.16885254 -134.17773438 379.96606445 C-126.42836625 378.49641711 -118.9922239 376.39454479 -111.5 373.9375 C-111.74121582 372.51715454 -111.74121582 372.51715454 -111.98730469 371.06811523 C-112.61412667 367.35490093 -113.22575184 363.63930526 -113.83248901 359.92276001 C-114.11086558 358.22403421 -114.39205605 356.52576714 -114.67605591 354.82797241 C-116.32312312 344.93328544 -117.66765052 335.13475598 -118.26171875 325.1171875 C-118.38081975 323.36268676 -118.50028127 321.60821046 -118.62011719 319.85375977 C-118.79035472 317.32362087 -118.93609278 314.80487944 -119.00109863 312.26974487 C-119.06505083 303.13354455 -119.06505083 303.13354455 -122.98046875 295.18792725 C-126.53396182 291.96587878 -130.45988681 289.47900208 -134.60073853 287.08474731 C-137.62426745 285.25838718 -140.34033458 283.10884258 -143.125 280.9375 C-143.67810349 280.5098082 -144.23120697 280.08211639 -144.80107117 279.64146423 C-151.67514038 274.32398122 -158.28166875 268.65450156 -164.80078125 262.91015625 C-167.71672174 259.95019937 -167.71672174 259.95019937 -171.5 258.9375 Z M126.6875 262.75 C125.68976563 263.57886719 124.69203125 264.40773438 123.6640625 265.26171875 C121.62426392 266.97868504 119.60303203 268.71302861 117.5859375 270.45703125 C104.51910008 281.71747125 90.65814933 291.98724782 76.34838867 301.61328125 C73.88457161 303.27246096 71.60631106 304.83118894 69.5 306.9375 C69.0195989 309.65223722 68.65117863 312.30326383 68.3515625 315.0390625 C68.25412247 315.86026581 68.15668243 316.68146912 68.05628967 317.52755737 C67.84739843 319.29066873 67.64210556 321.05420938 67.44003296 322.81811523 C66.91593744 327.38373198 66.36392053 331.94590265 65.80859375 336.5078125 C65.69927017 337.40771912 65.58994659 338.30762573 65.47731018 339.23480225 C64.16753961 349.8622388 62.41628643 360.40327737 60.5 370.9375 C63.8 371.5975 67.1 372.2575 70.5 372.9375 C71.03367187 372.15246094 71.56734375 371.36742187 72.1171875 370.55859375 C79.70878778 359.85417467 88.17249645 352.44377832 101.5 349.9375 C115.42222835 348.40929841 127.31566064 350.13995288 138.875 358.5625 C146.50800315 365.15294662 150.82401402 373.33543267 153.5 382.9375 C164.17940597 383.93093311 175.06996812 379.24032758 183.5 372.9375 C188.70781979 368.31948149 191.12493063 362.60586143 191.8203125 355.8046875 C192.82210814 325.95117729 170.63242603 299.13098288 151.6171875 278.2734375 C149.70919797 276.16831252 147.84952931 274.03136366 146 271.875 C142.06376176 267.36722365 137.99596001 262.89321227 133.5 258.9375 C130.39959601 258.9375 129.03607928 260.78654646 126.6875 262.75 Z M-103.5 309.9375 C-103.30745293 321.40280274 -101.7916089 332.62234473 -100.0625 343.9375 C-99.95322174 344.658237 -99.84394348 345.378974 -99.73135376 346.12155151 C-98.56263999 353.78614205 -97.31001832 361.39435388 -95.5 368.9375 C-87.28142465 366.86301822 -79.37413259 364.21663577 -71.4375 361.25 C-70.26533936 360.81445801 -69.09317871 360.37891602 -67.88549805 359.93017578 C-58.24546926 356.30600554 -48.82587515 352.30176576 -39.5 347.9375 C-43.92692179 344.01053858 -48.82255936 341.57948688 -54.0625 338.9375 C-69.03688808 331.23370188 -83.33095322 322.50407726 -97.38574219 313.23828125 C-100.23114606 310.97252947 -100.23114606 310.97252947 -103.5 309.9375 Z M43.0625 323 C35.34065064 327.93937473 27.39190613 332.43892022 19.375 336.875 C18.78300812 337.20323761 18.19101624 337.53147522 17.58108521 337.86965942 C11.93497577 340.99719716 6.28801264 344.0789634 0.5 346.9375 C3.08379021 349.52129021 6.01225328 350.5318233 9.34375 351.87109375 C10.02747681 352.14969742 10.71120361 352.42830109 11.41564941 352.71534729 C12.86723631 353.30531497 14.31986434 353.89272643 15.7734375 354.4777832 C17.96651924 355.36150858 20.15529786 356.25527215 22.34375 357.15039062 C29.63562664 360.11326159 36.87726872 362.91951388 44.5 364.9375 C46.82765513 355.63963108 48.43499094 346.37359983 49.6875 336.875 C49.86474609 335.58400391 50.04199219 334.29300781 50.22460938 332.96289062 C51.18073113 325.97403215 51.18073113 325.97403215 51.5 318.9375 C48.1996665 318.9375 45.75726911 321.24152601 43.0625 323 Z M-28.12890625 360.515625 C-28.74833603 360.79820663 -29.36776581 361.08078827 -30.00596619 361.37193298 C-31.33805637 361.98039566 -32.66689512 362.59601852 -33.99267578 363.21810913 C-37.53018194 364.87488082 -41.0941882 366.47201783 -44.66015625 368.06640625 C-45.3892923 368.39308792 -46.11842834 368.71976959 -46.86965942 369.05635071 C-54.45558132 372.42092674 -62.19172634 375.32291691 -70 378.125 C-71.85733765 378.79160645 -71.85733765 378.79160645 -73.75219727 379.47167969 C-76.0147744 380.27872554 -78.27828486 381.08316237 -80.54296875 381.88427734 C-84.2127861 383.19137708 -87.8584343 384.55388531 -91.5 385.9375 C-84.73639403 416.82305735 -73.77250956 449.85209661 -52.5 473.9375 C-51.93796875 474.58203125 -51.3759375 475.2265625 -50.796875 475.890625 C-44.26820559 482.90741922 -36.25501074 487.98729957 -26.5625 488.375 C-16.16651986 488.27092456 -8.0301946 483.29516331 -0.64453125 476.2421875 C20.77654368 453.22136017 35.49373628 416.56904581 40.5 385.9375 C40.49506167 383.3764418 40.49506167 383.3764418 39.5 380.9375 C37.0721371 379.40030172 37.0721371 379.40030172 33.9375 378.4296875 C32.75945801 378.0054248 31.58141602 377.58116211 30.36767578 377.14404297 C29.73702209 376.92697693 29.10636841 376.70991089 28.456604 376.48626709 C25.14107659 375.34454743 21.84865789 374.13973107 18.5546875 372.9375 C17.88235077 372.69369598 17.21001404 372.44989197 16.51730347 372.19869995 C8.67932609 369.32550798 1.10587789 365.89219949 -6.46484375 362.37841797 C-7.42261719 361.94158691 -8.38039063 361.50475586 -9.3671875 361.0546875 C-10.19331543 360.66909668 -11.01944336 360.28350586 -11.87060547 359.88623047 C-18.12985457 357.62778646 -22.1119311 357.69507263 -28.12890625 360.515625 Z " fill="#dfd0b8" transform="translate(279.5,7.0625)"/>
<path d="M0 0 C6.37211727 6.00195278 8.7356476 11.94044091 9.07902527 20.67453003 C9.08283707 21.91614899 9.08664886 23.15776794 9.09057617 24.43701172 C9.09393478 25.12729462 9.0972934 25.81757751 9.10075378 26.52877808 C9.1101995 28.7952457 9.11220362 31.06163895 9.11328125 33.328125 C9.11649811 34.91464263 9.1198625 36.50115998 9.12336731 38.087677 C9.12934251 41.40790494 9.13120885 44.72810691 9.13061523 48.04833984 C9.13051367 52.28708124 9.14416733 56.52565493 9.16138744 60.76435661 C9.17254629 64.03989414 9.17453326 67.31539161 9.17400551 70.5909462 C9.17517971 72.15293074 9.17956983 73.71491651 9.18733788 75.27688217 C9.28226848 96.33496031 9.28226848 96.33496031 1.17578125 105.2109375 C-12.11986262 118.2352417 -31.78966695 121.1375021 -49.6796875 121.4609375 C-67.93098202 121.26319866 -88.54160167 118.19115033 -102.37759399 105.09741211 C-110.30564604 96.47501533 -109.79355549 86.13542167 -109.71875 75.1484375 C-109.72212513 73.393063 -109.72698352 71.63769079 -109.73324585 69.88232422 C-109.74058442 66.21754533 -109.73000994 62.55337908 -109.70654297 58.88867188 C-109.67805656 54.21486637 -109.69447688 49.54249685 -109.72440529 44.8687439 C-109.7425605 41.24818296 -109.73668283 37.62795683 -109.72376633 34.00738525 C-109.72045496 32.28517482 -109.72443858 30.56293298 -109.73616409 28.84075928 C-109.79168218 18.39728859 -109.51034729 9.46544687 -102.26821899 1.24584961 C-78.75288893 -22.39135192 -24.40646074 -20.50885104 0 0 Z " fill="#4e4e4eff" transform="translate(304.0546875,202.7265625)"/>
<path d="M0 0 C1.52067573 0.88194279 3.0242526 1.79477889 4.5 2.75 C5.428125 3.348125 6.35625 3.94625 7.3125 4.5625 C13.92383328 11.17383328 15.78929612 17.7050023 15.8190918 26.91186523 C15.71120643 32.69800112 14.58125318 36.89779399 11.5 41.75 C10.84 42.801875 10.18 43.85375 9.5 44.9375 C4.86116971 50.00191105 -1.95469556 53.21230278 -8.66796875 54.23046875 C-17.67952087 54.47031995 -24.54627094 52.19438683 -31.60546875 46.625 C-37.52105075 40.77040338 -40.51852259 33.80933988 -40.8125 25.5625 C-40.70012815 18.05855767 -37.60536721 10.80415938 -32.44140625 5.35546875 C-22.9400654 -2.5017769 -11.41569551 -5.43685201 0 0 Z " fill="#4e4e4eff" transform="translate(80.5,267.25)"/>
<path d="M0 0 C6.49116627 6.09342324 9.05448725 12.65364091 9.4375 21.5 C9.158852 29.82460908 5.69794367 36.20883333 0.02734375 42.203125 C-6.79022214 48.24566895 -13.57628409 49.84289087 -22.59765625 49.48046875 C-30.21035413 48.40542645 -36.37897141 44.65565199 -41.52734375 38.99609375 C-47.0577595 31.49995993 -48.27554658 23.11903914 -47 14 C-44.25963348 5.18475016 -38.86902638 -0.08213952 -30.875 -4.3125 C-20.22525872 -9.23877188 -9.07172467 -7.25737974 0 0 Z " fill="#4e4e4eff" transform="translate(409,379)"/>
<path d="M0 0 C7.49182484 3.36201456 13.68587663 9.52413901 17.015625 17.06640625 C19.2898657 24.54315837 18.90322069 32.10676866 15.33203125 39.0625 C10.81832425 46.36211518 5.43461189 51.7938014 -2.984375 54.19140625 C-11.73489306 55.35518073 -19.48599095 55.30568774 -26.93359375 49.9609375 C-33.57057758 44.23416859 -37.38642411 38.75234954 -38.3359375 29.921875 C-38.66586276 21.90816407 -37.82331611 15.72106173 -32.984375 9.19140625 C-23.9583129 -0.59455019 -12.7795106 -3.46251138 0 0 Z " fill="#4e4e4eff    " transform="translate(325.984375,43.80859375)"/>
<path d="M0 0 C1.0103833 0.00749268 2.0207666 0.01498535 3.06176758 0.02270508 C16.26968735 0.21258683 29.38948391 1.57914288 40.375 9.6875 C42.6875 12.25 42.6875 12.25 44.0625 15.125 C43.53965224 19.4820647 41.69687995 20.9192252 38.3203125 23.578125 C22.79843828 33.43474542 1.49970402 34.64728147 -16.2175293 31.11938477 C-24.80481589 29.15160663 -34.45902836 26.23758177 -40.3125 19.25 C-40.9375 16.4375 -40.9375 16.4375 -40.3125 13.25 C-34.45981694 5.36679424 -23.21869893 2.36652567 -14.02709961 0.63378906 C-9.35123946 -0.02728227 -4.71506316 -0.04619901 0 0 Z " fill="#DFD0B8" transform="translate(252.3125,204.75)"/>
<path d="M0 0 C0.52207031 0.18175781 1.04414063 0.36351562 1.58203125 0.55078125 C7.6592858 2.62620093 13.77012104 4.44033973 20 6 C20.78246094 6.20882812 21.56492188 6.41765625 22.37109375 6.6328125 C40.62550344 10.78021438 61.74177237 8.89177816 78.64453125 0.98828125 C81 0 81 0 84 0 C84.77538462 12.73353846 84.77538462 12.73353846 82.125 17.0625 C64.75260907 27.83338238 44.64604656 31.06838546 24.4609375 27.27734375 C16.05281823 25.16247057 5.43853374 22.25137832 0 15 C-0.2911521 12.26317029 -0.38322418 9.96059961 -0.25 7.25 C-0.23195312 6.55261719 -0.21390625 5.85523438 -0.1953125 5.13671875 C-0.14838554 3.42388461 -0.07664605 1.71176176 0 0 Z " fill="#DFD0B8" transform="translate(212,244)"/>
<path d="M0 0 C0.83015625 0.27714844 1.6603125 0.55429687 2.515625 0.83984375 C4.24039063 1.41412109 4.24039063 1.41412109 6 2 C7.84851563 2.62068359 7.84851563 2.62068359 9.734375 3.25390625 C11.07268185 3.69082408 12.41122744 4.12701124 13.75 4.5625 C14.40226563 4.78357422 15.05453125 5.00464844 15.7265625 5.23242188 C36.40701495 11.89120569 59.38571772 8.45966818 79.19921875 0.98828125 C82 0 82 0 84 0 C84.10853983 2.22808159 84.18583307 4.45769932 84.25 6.6875 C84.29640625 7.92886719 84.3428125 9.17023438 84.390625 10.44921875 C83.93014721 14.63496189 82.99146872 16.09591095 80 19 C64.4027813 29.34341871 41.38176976 30.63240228 23.4140625 27.28125 C15.01294131 25.16818909 5.46391046 22.15712227 0 15 C-0.2911521 12.26317029 -0.38322418 9.96059961 -0.25 7.25 C-0.23195312 6.55261719 -0.21390625 5.85523438 -0.1953125 5.13671875 C-0.14838554 3.42388461 -0.07664605 1.71176176 0 0 Z " fill="#DFD0B8" transform="translate(212,279)"/>
<path d="M0 0 C1.98 0.99 1.98 0.99 4 2 C3.67 6.95 3.34 11.9 3 17 C2.01 16.34 1.02 15.68 0 15 C-0.22137393 12.37302936 -0.28162025 9.99106036 -0.1875 7.375 C-0.17396484 6.66859375 -0.16042969 5.9621875 -0.14648438 5.234375 C-0.1111104 3.48925872 -0.05730221 1.74453392 0 0 Z " fill="#DFD0B8" transform="translate(212,279)"/>
<path d="M0 0 C1.98 0.99 1.98 0.99 4 2 C3.67 6.95 3.34 11.9 3 17 C2.01 16.34 1.02 15.68 0 15 C-0.22137393 12.37302936 -0.28162025 9.99106036 -0.1875 7.375 C-0.17396484 6.66859375 -0.16042969 5.9621875 -0.14648438 5.234375 C-0.1111104 3.48925872 -0.05730221 1.74453392 0 0 Z " fill="#DFD0B8" transform="translate(212,244)"/>
</svg>
